<?xml version="1.0" standalone="no"?>
<!DOCTYPE svg PUBLIC "-//W3C//DTD SVG 20010904//EN"
 "http://www.w3.org/TR/2001/REC-SVG-20010904/DTD/svg10.dtd">
<svg version="1.0" xmlns="http://www.w3.org/2000/svg"
 width="600.000000pt" height="600.000000pt" viewBox="0 0 600.000000 600.000000"
 preserveAspectRatio="xMidYMid meet">
<metadata>
Created by potrace 1.11, written by Peter Selinger 2001-2013
</metadata>
<g transform="translate(0.000000,600.000000) scale(0.100000,-0.100000)"
fill="#000000" stroke="none">
<path d="M0 3000 l0 -3000 1576 0 1576 0 61 47 c34 26 85 66 113 88 28 22 66
52 85 66 44 34 328 256 484 379 66 51 177 138 248 193 70 55 127 102 127 106
0 3 -732 6 -1628 6 l-1627 0 0 2558 0 2557 -507 0 -508 0 0 -3000z"/>
<path d="M1123 5323 l0 -678 32 -45 c31 -44 305 -448 335 -495 15 -24 372
-555 605 -900 67 -99 216 -319 330 -490 115 -170 226 -335 247 -365 21 -30 43
-62 49 -70 6 -9 24 -36 40 -60 16 -25 66 -99 111 -165 46 -66 116 -168 157
-228 41 -59 77 -107 81 -107 3 0 29 33 56 72 27 40 107 156 178 258 166 237
218 312 302 435 38 56 102 148 142 205 40 58 172 247 292 420 274 396 498 717
646 930 150 215 195 291 293 490 53 108 80 153 77 130 -3 -19 -8 -69 -12 -110
-3 -41 -8 -88 -11 -105 -6 -36 -12 -2945 -6 -2945 6 0 69 49 363 279 129 101
250 195 269 210 19 14 68 53 110 87 42 33 102 80 134 103 l57 43 -2 1887 -3
1886 -404 0 -405 0 -113 -160 c-62 -88 -118 -169 -125 -179 -7 -10 -22 -31
-33 -45 -11 -14 -29 -39 -41 -56 -11 -16 -39 -57 -62 -90 -33 -47 -211 -299
-272 -385 -52 -74 -1237 -1753 -1254 -1776 -11 -18 -38 -57 -59 -88 -22 -31
-41 -56 -42 -56 -6 0 -93 119 -545 745 -238 330 -480 665 -538 745 -200 276
-229 316 -380 525 -83 116 -155 215 -159 220 -5 6 -24 32 -43 60 -19 27 -39
55 -45 61 -5 6 -28 37 -50 68 -35 51 -294 407 -300 414 -1 1 -2 -302 -2 -675z"/>
</g>
</svg>
